<svg id="svg" version="1.1" xmlns="http://www.w3.org/2000/svg" xmlns:xlink="http://www.w3.org/1999/xlink" width="400" height="400" viewBox="0, 0, 400,400"><g id="svgg"><path id="path0" d="M148.252 82.500 C 142.537 95.689,137.417 110.678,134.213 123.600 C 133.858 125.030,133.406 126.830,133.209 127.600 C 132.343 130.981,131.739 134.124,130.826 140.000 C 129.013 151.671,129.123 161.706,131.155 170.200 C 131.970 173.606,132.107 174.024,133.284 176.700 C 135.172 180.994,141.108 187.966,145.123 190.605 C 146.879 191.758,147.204 192.304,148.778 196.738 C 150.717 202.198,155.137 209.203,160.007 214.532 C 166.348 221.470,177.158 227.979,185.600 229.942 C 197.362 232.678,203.213 232.677,214.800 229.935 C 218.979 228.946,222.955 227.242,228.569 224.033 C 254.420 209.257,263.281 171.728,246.693 147.269 C 245.450 145.436,245.415 144.737,246.396 141.400 C 248.150 135.439,248.181 129.208,246.490 122.762 C 243.700 112.130,231.479 101.141,215.200 94.625 C 214.210 94.229,211.960 93.374,210.200 92.726 C 207.309 91.661,206.108 91.254,202.200 90.013 C 200.633 89.515,196.625 88.424,194.600 87.943 C 193.720 87.734,192.280 87.382,191.400 87.160 C 190.520 86.938,189.080 86.607,188.200 86.425 C 187.320 86.242,184.710 85.690,182.400 85.197 C 180.090 84.704,177.390 84.167,176.400 84.004 C 173.556 83.535,166.103 82.456,162.600 82.007 C 160.840 81.782,158.106 81.418,156.523 81.199 C 154.941 80.979,152.599 80.800,151.318 80.800 L 148.989 80.800 148.252 82.500 " stroke="none" fill="#d54343" fill-rule="evenodd"></path><path id="path1" d="M174.600 254.058 C 157.134 254.650,143.084 255.558,125.600 257.225 C 117.931 257.956,105.629 259.482,100.000 260.400 C 98.790 260.597,96.360 260.968,94.600 261.223 C 84.527 262.683,67.375 266.813,61.300 269.240 C 60.805 269.438,59.995 269.759,59.500 269.953 C 38.716 278.100,39.854 287.333,62.600 295.110 C 67.138 296.662,71.803 298.093,73.400 298.423 C 74.280 298.605,75.900 298.962,77.000 299.216 C 81.000 300.141,82.241 300.410,84.400 300.819 C 85.610 301.048,87.500 301.409,88.600 301.621 C 89.700 301.834,91.680 302.178,93.000 302.386 C 94.320 302.595,96.570 302.961,98.000 303.200 C 111.332 305.431,128.192 307.241,150.200 308.804 C 173.298 310.445,227.578 310.665,248.000 309.201 C 250.970 308.988,256.100 308.626,259.400 308.397 C 269.224 307.714,287.275 305.975,292.600 305.198 C 293.920 305.005,296.440 304.648,298.200 304.403 C 299.960 304.159,302.390 303.795,303.600 303.595 C 304.810 303.394,307.060 303.030,308.600 302.785 C 313.839 301.952,316.198 301.547,317.800 301.205 C 318.680 301.017,320.480 300.661,321.800 300.414 C 333.998 298.127,350.072 292.592,354.600 289.120 C 359.717 285.197,360.840 281.699,358.138 278.102 C 355.099 274.057,343.001 268.530,330.800 265.612 C 330.030 265.428,328.410 265.017,327.200 264.698 C 325.990 264.380,323.920 263.898,322.600 263.627 C 321.280 263.356,319.480 262.984,318.600 262.800 C 315.774 262.208,312.674 261.655,309.702 261.213 C 289.839 258.257,280.752 257.239,259.800 255.620 C 236.523 253.822,200.860 253.168,174.600 254.058 " stroke="none" fill="#3cb4fb" fill-rule="evenodd"></path><path id="path2" d="M0.000 200.000 L 0.000 400.000 200.000 400.000 L 400.000 400.000 400.000 200.000 L 400.000 0.000 200.000 0.000 L 0.000 0.000 0.000 200.000 M147.000 48.431 C 154.497 49.497,156.342 49.848,163.800 51.631 C 169.853 53.078,169.448 52.960,178.000 55.762 C 184.116 57.765,188.979 59.564,192.400 61.088 C 195.434 62.440,205.933 67.648,208.200 68.926 C 209.520 69.670,211.320 70.687,212.200 71.186 C 222.392 76.963,236.731 88.366,242.349 95.162 C 252.761 107.758,258.248 128.190,254.766 141.400 C 253.826 144.967,252.649 148.333,251.514 150.701 L 250.316 153.202 251.396 155.901 C 253.119 160.203,253.833 162.665,254.848 167.800 C 255.488 171.036,255.487 183.198,254.847 186.000 C 253.079 193.740,252.349 196.060,250.316 200.400 C 243.105 215.796,228.439 227.614,212.600 230.791 C 211.280 231.055,209.300 231.466,208.200 231.703 C 205.508 232.284,194.738 232.252,192.000 231.655 C 190.790 231.392,188.810 230.981,187.600 230.743 C 174.915 228.244,161.322 218.773,154.000 207.330 L 151.400 203.267 149.200 202.784 C 128.114 198.160,111.956 178.240,108.352 152.425 C 107.751 148.125,107.762 128.574,108.367 123.562 C 109.367 115.291,109.680 112.924,110.003 111.200 C 110.188 110.210,110.545 108.230,110.796 106.800 C 112.245 98.558,115.122 88.090,118.328 79.400 C 120.717 72.922,121.450 71.203,124.811 64.200 C 127.640 58.306,133.170 48.694,134.199 47.884 C 134.675 47.509,143.023 47.865,147.000 48.431 M226.800 253.994 C 247.794 254.695,259.319 255.412,278.400 257.205 C 285.437 257.867,295.086 259.062,304.302 260.415 C 312.643 261.639,314.664 261.976,318.600 262.800 C 319.480 262.984,321.280 263.356,322.600 263.627 C 323.920 263.898,325.990 264.380,327.200 264.698 C 328.410 265.017,330.030 265.428,330.800 265.612 C 343.001 268.530,355.099 274.057,358.138 278.102 C 360.840 281.699,359.717 285.197,354.600 289.120 C 350.072 292.592,333.998 298.127,321.800 300.414 C 320.480 300.661,318.680 301.017,317.800 301.205 C 316.198 301.547,313.839 301.952,308.600 302.785 C 307.060 303.030,304.810 303.394,303.600 303.595 C 302.390 303.795,299.960 304.159,298.200 304.403 C 296.440 304.648,293.920 305.005,292.600 305.198 C 287.275 305.975,269.224 307.714,259.400 308.397 C 256.100 308.626,250.970 308.988,248.000 309.201 C 227.578 310.665,173.298 310.445,150.200 308.804 C 128.192 307.241,111.332 305.431,98.000 303.200 C 96.570 302.961,94.320 302.595,93.000 302.386 C 91.680 302.178,89.700 301.834,88.600 301.621 C 87.500 301.409,85.610 301.048,84.400 300.819 C 82.241 300.410,81.000 300.141,77.000 299.216 C 75.900 298.962,74.280 298.605,73.400 298.423 C 71.803 298.093,67.138 296.662,62.600 295.110 C 39.854 287.333,38.716 278.100,59.500 269.953 C 59.995 269.759,60.805 269.438,61.300 269.240 C 67.375 266.813,84.527 262.683,94.600 261.223 C 96.360 260.968,98.790 260.597,100.000 260.400 C 105.629 259.482,117.931 257.956,125.600 257.225 C 151.203 254.785,171.737 253.793,199.400 253.660 C 207.760 253.620,220.090 253.770,226.800 253.994 " stroke="none" fill="#fbfbfb" fill-rule="evenodd"></path><path id="path3" d="M133.548 49.875 C 127.913 58.066,121.926 70.718,117.591 83.600 C 112.869 97.631,110.433 109.300,108.988 124.800 C 108.009 135.297,108.425 151.552,109.835 157.926 C 113.907 176.327,124.848 191.418,139.400 198.705 C 143.287 200.652,151.200 203.016,151.200 202.230 C 151.200 202.117,150.867 201.431,150.459 200.705 C 150.052 199.980,149.305 198.224,148.801 196.803 C 147.201 192.296,146.884 191.762,145.123 190.605 C 142.249 188.715,138.192 184.509,135.918 181.062 C 132.968 176.587,132.342 175.160,131.155 170.200 C 129.123 161.706,129.013 151.671,130.826 140.000 C 131.739 134.124,132.343 130.981,133.209 127.600 C 133.406 126.830,133.858 125.030,134.213 123.600 C 137.417 110.678,142.537 95.689,148.252 82.500 L 148.989 80.800 151.318 80.800 C 152.599 80.800,154.941 80.979,156.523 81.199 C 158.106 81.418,160.840 81.782,162.600 82.007 C 166.103 82.456,173.556 83.535,176.400 84.004 C 177.390 84.167,180.090 84.704,182.400 85.197 C 184.710 85.690,187.320 86.242,188.200 86.425 C 189.080 86.607,190.565 86.946,191.500 87.178 C 192.435 87.410,193.875 87.763,194.700 87.961 C 196.708 88.445,200.715 89.541,202.200 90.013 C 202.860 90.222,204.210 90.648,205.200 90.959 C 207.091 91.553,208.549 92.088,213.800 94.113 C 220.236 96.595,228.826 101.267,233.346 104.743 C 234.612 105.717,240.451 111.586,241.758 113.200 C 247.235 119.960,249.196 131.882,246.396 141.400 C 245.490 144.481,245.474 145.499,246.312 146.680 C 247.878 148.886,249.600 152.047,249.600 152.718 C 249.601 154.820,253.189 145.477,254.253 140.600 C 255.003 137.166,255.111 126.832,254.433 123.400 C 250.427 103.122,241.166 90.939,218.200 75.733 C 210.694 70.763,192.796 61.200,191.002 61.200 C 190.904 61.200,189.873 60.769,188.712 60.242 C 184.672 58.408,170.480 53.853,163.200 52.052 C 156.768 50.462,147.320 48.949,141.400 48.563 C 139.860 48.462,137.736 48.320,136.680 48.247 C 134.808 48.117,134.730 48.157,133.548 49.875 " stroke="none" fill="#fbcb5c" fill-rule="evenodd"></path><path id="path4" d="M134.199 47.884 C 133.170 48.694,127.640 58.306,124.811 64.200 C 121.450 71.203,120.717 72.922,118.328 79.400 C 115.122 88.090,112.245 98.558,110.796 106.800 C 110.545 108.230,110.188 110.210,110.003 111.200 C 109.680 112.924,109.367 115.291,108.367 123.562 C 107.762 128.574,107.751 148.125,108.352 152.425 C 111.960 178.266,128.352 198.431,149.281 202.775 C 150.771 203.085,151.640 203.483,151.787 203.924 C 151.912 204.296,152.382 205.050,152.833 205.600 L 153.654 206.600 153.170 205.600 C 152.068 203.321,151.160 202.429,149.683 202.176 C 134.193 199.527,118.267 184.465,112.491 167.000 C 110.137 159.881,109.739 158.115,109.003 151.526 C 107.555 138.563,108.699 120.209,111.955 104.200 C 115.874 84.924,124.755 62.573,133.521 49.918 L 134.680 48.246 138.834 48.357 C 141.118 48.418,143.085 48.529,143.204 48.602 C 143.323 48.676,145.191 48.933,147.355 49.175 C 158.441 50.411,179.418 56.024,188.712 60.242 C 189.873 60.769,190.904 61.200,191.002 61.200 C 192.796 61.200,210.694 70.763,218.200 75.733 C 241.166 90.939,250.427 103.122,254.433 123.400 C 255.985 131.256,254.420 143.650,251.034 150.334 C 250.465 151.456,250.005 152.694,250.012 153.087 C 250.040 154.843,253.399 146.587,254.766 141.400 C 258.248 128.190,252.761 107.758,242.349 95.162 C 236.731 88.366,222.392 76.963,212.200 71.186 C 211.320 70.687,209.520 69.670,208.200 68.926 C 205.933 67.648,195.434 62.440,192.400 61.088 C 188.979 59.564,184.116 57.765,178.000 55.762 C 169.448 52.960,169.853 53.078,163.800 51.631 C 156.342 49.848,154.497 49.497,147.000 48.431 C 143.023 47.865,134.675 47.509,134.199 47.884 M252.012 158.400 C 252.012 158.730,252.187 159.270,252.400 159.600 C 252.745 160.133,252.788 160.133,252.788 159.600 C 252.788 159.270,252.613 158.730,252.400 158.400 C 252.055 157.867,252.012 157.867,252.012 158.400 M252.812 160.800 C 252.812 161.130,252.987 161.670,253.200 162.000 C 253.545 162.533,253.588 162.533,253.588 162.000 C 253.588 161.670,253.413 161.130,253.200 160.800 C 252.855 160.267,252.812 160.267,252.812 160.800 M253.634 163.800 C 253.622 164.240,253.787 164.870,254.000 165.200 C 254.514 165.995,254.514 164.996,254.000 163.800 L 253.656 163.000 253.634 163.800 M254.487 167.800 C 254.483 168.460,254.624 169.450,254.800 170.000 L 255.120 171.000 255.113 170.000 C 255.109 169.450,254.968 168.460,254.800 167.800 L 254.495 166.600 254.487 167.800 M255.334 177.200 C 255.334 178.850,255.405 179.525,255.491 178.700 C 255.578 177.875,255.578 176.525,255.491 175.700 C 255.405 174.875,255.334 175.550,255.334 177.200 M254.600 184.800 C 254.446 185.710,254.411 186.544,254.521 186.654 C 254.631 186.764,254.846 186.110,255.000 185.200 C 255.154 184.290,255.189 183.456,255.079 183.346 C 254.969 183.236,254.754 183.890,254.600 184.800 M253.829 189.029 C 253.681 189.615,253.638 190.172,253.732 190.266 C 253.827 190.360,254.024 189.958,254.171 189.371 C 254.319 188.785,254.362 188.228,254.268 188.134 C 254.173 188.040,253.976 188.442,253.829 189.029 M253.029 192.229 C 252.881 192.815,252.838 193.372,252.932 193.466 C 253.027 193.560,253.224 193.158,253.371 192.571 C 253.519 191.985,253.562 191.428,253.468 191.334 C 253.373 191.240,253.176 191.642,253.029 192.229 M251.400 196.800 C 251.250 197.273,251.217 197.750,251.327 197.860 C 251.437 197.970,251.650 197.673,251.800 197.200 C 251.950 196.727,251.983 196.250,251.873 196.140 C 251.763 196.030,251.550 196.327,251.400 196.800 M248.678 203.005 C 248.312 203.772,248.095 204.400,248.196 204.400 C 248.470 204.400,249.684 201.951,249.501 201.768 C 249.414 201.681,249.044 202.238,248.678 203.005 M246.757 206.300 C 246.258 207.125,245.063 208.835,244.101 210.100 C 243.140 211.365,242.443 212.400,242.553 212.400 C 242.828 212.400,246.044 208.139,247.157 206.300 C 247.657 205.475,247.975 204.800,247.865 204.800 C 247.755 204.800,247.257 205.475,246.757 206.300 M155.675 209.894 C 156.404 210.935,158.620 213.422,160.600 215.420 C 163.867 218.716,163.920 218.754,161.171 215.826 C 159.505 214.052,157.369 211.565,156.423 210.300 C 154.351 207.528,153.817 207.238,155.675 209.894 M238.900 215.927 C 237.305 217.580,236.054 218.987,236.121 219.054 C 236.188 219.121,237.669 217.741,239.412 215.988 C 241.155 214.235,242.405 212.827,242.191 212.860 C 241.976 212.893,240.495 214.273,238.900 215.927 M167.694 221.690 C 168.882 222.700,171.200 224.147,171.200 223.879 C 171.200 223.788,170.165 223.049,168.900 222.237 C 167.635 221.425,167.092 221.179,167.694 221.690 M231.487 222.168 C 229.106 223.816,228.636 224.293,230.200 223.472 C 231.371 222.857,233.998 220.821,233.600 220.836 C 233.490 220.841,232.539 221.440,231.487 222.168 M172.400 224.767 C 173.363 225.552,174.000 225.808,174.000 225.410 C 174.000 225.306,173.415 224.935,172.700 224.586 L 171.400 223.952 172.400 224.767 M227.500 224.629 C 226.895 224.957,226.400 225.310,226.400 225.413 C 226.400 225.799,227.032 225.557,228.000 224.800 C 229.189 223.870,229.011 223.809,227.500 224.629 M184.200 230.000 C 185.396 230.514,186.395 230.514,185.600 230.000 C 185.270 229.787,184.640 229.622,184.200 229.634 L 183.400 229.656 184.200 230.000 M214.800 230.000 C 214.005 230.514,215.004 230.514,216.200 230.000 L 217.000 229.656 216.200 229.634 C 215.760 229.622,215.130 229.787,214.800 230.000 M187.800 230.800 C 188.240 230.989,188.870 231.144,189.200 231.144 C 189.578 231.144,189.504 231.017,189.000 230.800 C 188.560 230.611,187.930 230.456,187.600 230.456 C 187.222 230.456,187.296 230.583,187.800 230.800 M211.400 230.800 C 210.896 231.017,210.822 231.144,211.200 231.144 C 211.530 231.144,212.160 230.989,212.600 230.800 C 213.104 230.583,213.178 230.456,212.800 230.456 C 212.470 230.456,211.840 230.611,211.400 230.800 M192.000 231.600 C 192.550 231.776,193.540 231.917,194.200 231.913 L 195.400 231.905 194.200 231.600 C 193.540 231.432,192.550 231.291,192.000 231.287 L 191.000 231.280 192.000 231.600 M206.200 231.600 L 205.000 231.905 206.200 231.913 C 206.860 231.917,207.850 231.776,208.400 231.600 L 209.400 231.280 208.400 231.287 C 207.850 231.291,206.860 231.432,206.200 231.600 M199.107 232.290 C 199.826 232.379,200.906 232.377,201.507 232.286 C 202.108 232.195,201.520 232.122,200.200 232.124 C 198.880 232.126,198.388 232.201,199.107 232.290 " stroke="none" fill="#fce88f" fill-rule="evenodd"></path></g></svg>