<?xml version="1.0" standalone="no"?>
<!DOCTYPE svg PUBLIC "-//W3C//DTD SVG 20010904//EN"
 "http://www.w3.org/TR/2001/REC-SVG-20010904/DTD/svg10.dtd">
<svg version="1.0" xmlns="http://www.w3.org/2000/svg"
 width="500.000000pt" height="500.000000pt" viewBox="0 0 500.000000 500.000000"
 preserveAspectRatio="xMidYMid meet">
<metadata>
Created by potrace 1.16, written by Peter Selinger 2001-2019
</metadata>
<g transform="translate(0.000000,500.000000) scale(0.100000,-0.100000)"
fill="#000000" stroke="none">
<path d="M1540 2420 l0 -720 35 0 c28 0 35 4 35 20 0 11 -7 20 -15 20 -13 0
-15 83 -15 690 l0 690 400 0 c393 0 400 0 400 -20 0 -13 7 -20 20 -20 20 0 20
-7 20 -617 l0 -616 25 23 25 23 0 624 0 623 -465 0 -465 0 0 -720z"/>
</g>
</svg>
