<?xml version="1.0" standalone="no"?>
<!DOCTYPE svg PUBLIC "-//W3C//DTD SVG 20010904//EN"
 "http://www.w3.org/TR/2001/REC-SVG-20010904/DTD/svg10.dtd">
<svg version="1.0" xmlns="http://www.w3.org/2000/svg"
 width="375.000000pt" height="375.000000pt" viewBox="0 0 375.000000 375.000000"
 preserveAspectRatio="xMidYMid meet">
<metadata>
Created by potrace 1.16, written by Peter Selinger 2001-2019
</metadata>
<g transform="translate(0.000000,375.000000) scale(0.100000,-0.100000)"
fill="#000000" stroke="none">
<path d="M1160 3053 c-377 -135 -686 -246 -686 -247 -6 -6 214 -1848 221
-1855 17 -17 1167 -651 1180 -651 14 0 1162 633 1180 651 7 7 227 1849 221
1855 -10 11 -1389 494 -1407 493 -13 -1 -332 -112 -709 -246z m1154 -1068
c234 -528 426 -963 426 -968 0 -4 -73 -6 -162 -5 l-162 3 -86 215 -86 215
-370 3 -370 2 -88 -220 -88 -220 -164 0 -163 0 18 43 c10 23 197 442 416 932
219 490 406 910 417 934 10 25 22 40 27 35 5 -5 200 -441 435 -969z"/>
<path d="M1749 2028 l-125 -303 129 -3 c70 -1 183 -1 251 0 l122 3 -123 295
c-67 162 -124 298 -125 303 -2 4 -60 -129 -129 -295z"/>
</g>
</svg>
